<?xml version="1.0" encoding="UTF-8"?>
<svg xmlns="http://www.w3.org/2000/svg" xmlns:xlink="http://www.w3.org/1999/xlink" width="0" height="0">
  <symbol id="arrow-right" width="40" height="40" viewBox="0 0 40 40" fill="none">
    <path d="M17.4332 30C16.9098 29.9969 16.3929 29.8833 15.9165 29.6667C15.4012 29.4395 14.9622 29.0689 14.6519 28.599C14.3416 28.1291 14.1731 27.5798 14.1665 27.0167V12.9833C14.1731 12.4202 14.3416 11.8709 14.6519 11.401C14.9622 10.9311 15.4012 10.5605 15.9165 10.3333C16.5094 10.0533 17.1691 9.94541 17.8203 10.022C18.4715 10.0986 19.0881 10.3567 19.5998 10.7667L28.0998 17.7833C28.4332 18.0487 28.7023 18.3858 28.8874 18.7696C29.0724 19.1534 29.1685 19.5739 29.1685 20C29.1685 20.4261 29.0724 20.8466 28.8874 21.2304C28.7023 21.6142 28.4332 21.9513 28.0998 22.2167L19.5998 29.2333C18.9871 29.7302 18.222 30.0009 17.4332 30Z" />
  </symbol>
  <symbol id="backquotes" width="27" height="23" viewBox="0 0 27 23" fill="none">
    <path d="M10.7199 13.92C10.7199 11.68 10.3466 9.6 9.5999 7.68C8.85324 5.76 7.97323 4.29333 6.9599 3.28C5.94657 2.21334 5.01323 1.41334 4.1599 0.880003C3.25323 0.293334 2.5599 0 2.0799 0C1.81323 0 1.57323 0.133335 1.3599 0.400004C1.14657 0.613335 1.0399 0.800001 1.0399 0.960002C1.0399 1.28 1.2799 1.65333 1.7599 2.08C2.2399 2.45334 2.74657 2.85334 3.2799 3.28C3.81323 3.70667 4.3199 4.42667 4.7999 5.44C5.2799 6.45333 5.5199 7.65334 5.5199 9.04C5.5199 10.48 5.22657 11.7067 4.6399 12.72C4.05323 13.68 3.4399 14.3467 2.7999 14.72C2.10657 15.0933 1.46657 15.5467 0.879902 16.08C0.293236 16.56 -9.91821e-05 17.12 -9.91821e-05 17.76C-9.91821e-05 18.08 0.7199 18.96 2.1599 20.4C2.26657 20.5067 2.5599 20.8533 3.0399 21.44C3.46657 21.9733 3.86657 22.3467 4.2399 22.56C4.5599 22.7733 4.93324 22.88 5.3599 22.88C5.5199 22.88 5.78657 22.8 6.1599 22.64C6.53324 22.4267 6.98657 22.08 7.5199 21.6C8.05323 21.12 8.5599 20.56 9.0399 19.92C9.5199 19.28 9.9199 18.4267 10.2399 17.36C10.5599 16.2933 10.7199 15.1467 10.7199 13.92ZM26.3999 13.92C26.3999 11.68 26.0266 9.6 25.2799 7.68C24.5332 5.76 23.6532 4.29333 22.6399 3.28C21.5732 2.21334 20.6132 1.41334 19.7599 0.880003C18.8532 0.293334 18.1599 0 17.6799 0C17.4132 0 17.1732 0.133335 16.9599 0.400004C16.7466 0.613335 16.6399 0.800001 16.6399 0.960002C16.6399 1.28 16.8799 1.65333 17.3599 2.08C17.7866 2.45334 18.2932 2.85334 18.8799 3.28C19.4666 3.70667 19.9999 4.42667 20.4799 5.44C20.9066 6.45333 21.1199 7.65334 21.1199 9.04C21.1199 10.48 20.8266 11.7067 20.2399 12.72C19.6532 13.68 19.0399 14.3467 18.3999 14.72C17.7066 15.0933 17.0666 15.5467 16.4799 16.08C15.8932 16.56 15.5999 17.12 15.5999 17.76C15.5999 18.08 16.3199 18.96 17.7599 20.4C17.8666 20.5067 18.1599 20.8533 18.6399 21.44C19.0666 21.9733 19.4666 22.3467 19.8399 22.56C20.1599 22.7733 20.5332 22.88 20.9599 22.88C21.3332 22.88 21.9199 22.6133 22.7199 22.08C23.4666 21.5467 24.2666 20.56 25.1199 19.12C25.9732 17.6267 26.3999 15.8933 26.3999 13.92Z" />
  </symbol>
  <symbol id="breakfast" width="40" height="36" viewBox="0 0 40 36" fill="none">
    <path d="M10.5469 5.10938H29.4531C30.0993 5.10938 30.625 5.63508 30.625 6.28125C30.625 6.92742 30.0993 7.45312 29.4531 7.45312H22.3438C20.4052 7.45312 18.8281 9.03023 18.8281 10.9688V12.1406H21.1719V10.9688C21.1719 10.3226 21.6976 9.79688 22.3438 9.79688H29.4531C31.3916 9.79688 32.9688 8.21977 32.9688 6.28125C32.9688 4.34273 31.3916 2.76562 29.4531 2.76562H10.5469C9.9007 2.76562 9.375 2.23992 9.375 1.59375V0.421875H7.03125V1.59375C7.03125 3.53227 8.60836 5.10938 10.5469 5.10938Z" />
    <path d="M31.6168 26.2031H35.3125C37.8972 26.2031 40 24.1003 40 21.5156C40 18.9309 37.8972 16.8281 35.3125 16.8281H32.9688V14.4844H7.03125V20.4219C7.03125 23.427 8.04828 26.2684 9.88672 28.5469H0V30.8906H5.13516L7.47891 35.5781H32.5212L34.8649 30.8906H40V28.5469H30.1133C30.7007 27.8189 31.2035 27.033 31.6168 26.2031ZM35.3125 19.1719C36.6048 19.1719 37.6562 20.2233 37.6562 21.5156C37.6562 22.808 36.6048 23.8594 35.3125 23.8594H32.5097C32.811 22.7547 32.9688 21.6011 32.9688 20.4219V19.1719H35.3125ZM9.375 20.4219V16.8281H30.625V20.4219C30.625 23.5814 29.2521 26.5202 26.8455 28.5469H13.1545C10.7479 26.5202 9.375 23.5814 9.375 20.4219ZM31.0726 33.2344H8.92742L7.75555 30.8906H32.2445L31.0726 33.2344Z" />
  </symbol>
  <symbol id="calendar" width="24" height="24" viewBox="0 0 24 24" fill="none">
    <path d="M18 4H17V3C17 2.73478 16.8946 2.48043 16.7071 2.29289C16.5196 2.10536 16.2652 2 16 2C15.7348 2 15.4804 2.10536 15.2929 2.29289C15.1054 2.48043 15 2.73478 15 3V4H9V3C9 2.73478 8.89464 2.48043 8.70711 2.29289C8.51957 2.10536 8.26522 2 8 2C7.73478 2 7.48043 2.10536 7.29289 2.29289C7.10536 2.48043 7 2.73478 7 3V4H6C5.20435 4 4.44129 4.31607 3.87868 4.87868C3.31607 5.44129 3 6.20435 3 7V19C3 19.7956 3.31607 20.5587 3.87868 21.1213C4.44129 21.6839 5.20435 22 6 22H18C18.7956 22 19.5587 21.6839 20.1213 21.1213C20.6839 20.5587 21 19.7956 21 19V7C21 6.20435 20.6839 5.44129 20.1213 4.87868C19.5587 4.31607 18.7956 4 18 4ZM8 17C7.80222 17 7.60888 16.9414 7.44443 16.8315C7.27998 16.7216 7.15181 16.5654 7.07612 16.3827C7.00043 16.2 6.98063 15.9989 7.01921 15.8049C7.0578 15.6109 7.15304 15.4327 7.29289 15.2929C7.43275 15.153 7.61093 15.0578 7.80491 15.0192C7.99889 14.9806 8.19996 15.0004 8.38268 15.0761C8.56541 15.1518 8.72159 15.28 8.83147 15.4444C8.94135 15.6089 9 15.8022 9 16C9 16.2652 8.89464 16.5196 8.70711 16.7071C8.51957 16.8946 8.26522 17 8 17ZM16 17H12C11.7348 17 11.4804 16.8946 11.2929 16.7071C11.1054 16.5196 11 16.2652 11 16C11 15.7348 11.1054 15.4804 11.2929 15.2929C11.4804 15.1054 11.7348 15 12 15H16C16.2652 15 16.5196 15.1054 16.7071 15.2929C16.8946 15.4804 17 15.7348 17 16C17 16.2652 16.8946 16.5196 16.7071 16.7071C16.5196 16.8946 16.2652 17 16 17ZM19 11H5V7C5 6.73478 5.10536 6.48043 5.29289 6.29289C5.48043 6.10536 5.73478 6 6 6H7V7C7 7.26522 7.10536 7.51957 7.29289 7.70711C7.48043 7.89464 7.73478 8 8 8C8.26522 8 8.51957 7.89464 8.70711 7.70711C8.89464 7.51957 9 7.26522 9 7V6H15V7C15 7.26522 15.1054 7.51957 15.2929 7.70711C15.4804 7.89464 15.7348 8 16 8C16.2652 8 16.5196 7.89464 16.7071 7.70711C16.8946 7.51957 17 7.26522 17 7V6H18C18.2652 6 18.5196 6.10536 18.7071 6.29289C18.8946 6.48043 19 6.73478 19 7V11Z" />
  </symbol>
  <symbol id="chevron-down" width="36" height="36" viewBox="0 0 36 36" fill="none">
    <path d="M27 22.5L18 13.5L9 22.5" stroke-width="3.08333" stroke-linecap="round" stroke-linejoin="round" />
  </symbol>
  <symbol id="exercise" width="40" height="28" viewBox="0 0 40 28" fill="none">
    <path d="M37.3913 6.17393H35.6522C35.3461 6.17393 35.0557 6.23654 34.7826 6.33393V3.56524C34.7826 2.12698 33.6122 0.956543 32.1739 0.956543H30.4348C28.9965 0.956543 27.8261 2.12698 27.8261 3.56524V9.65219H12.1739V3.56524C12.1739 2.12698 11.0035 0.956543 9.56522 0.956543H7.82609C6.38783 0.956543 5.21739 2.12698 5.21739 3.56524V6.33393C4.94435 6.23654 4.65391 6.17393 4.34783 6.17393H2.6087C1.17043 6.17393 0 7.34437 0 8.78263V19.2174C0 20.6557 1.17043 21.8261 2.6087 21.8261H4.34783C4.65391 21.8261 4.94435 21.7635 5.21739 21.6661V24.4348C5.21739 25.8731 6.38783 27.0435 7.82609 27.0435H9.56522C11.0035 27.0435 12.1739 25.8731 12.1739 24.4348V18.3478H27.8261V24.4348C27.8261 25.8731 28.9965 27.0435 30.4348 27.0435H32.1739C33.6122 27.0435 34.7826 25.8731 34.7826 24.4348V21.6661C35.0557 21.7635 35.3461 21.8261 35.6522 21.8261H37.3913C38.8296 21.8261 40 20.6557 40 19.2174V8.78263C40 7.34437 38.8296 6.17393 37.3913 6.17393ZM5.21739 19.2174C5.21739 19.6965 4.82696 20.087 4.34783 20.087H2.6087C2.12957 20.087 1.73913 19.6965 1.73913 19.2174V8.78263C1.73913 8.3035 2.12957 7.91306 2.6087 7.91306H4.34783C4.82696 7.91306 5.21739 8.3035 5.21739 8.78263V19.2174ZM10.4348 24.4348C10.4348 24.9139 10.0443 25.3044 9.56522 25.3044H7.82609C7.34696 25.3044 6.95652 24.9139 6.95652 24.4348V19.2174V8.78263V3.56524C6.95652 3.08611 7.34696 2.69567 7.82609 2.69567H9.56522C10.0443 2.69567 10.4348 3.08611 10.4348 3.56524V24.4348ZM27.8261 16.6087H12.1739V11.3913H27.8261V16.6087ZM33.0435 8.78263V19.2174V24.4348C33.0435 24.9139 32.653 25.3044 32.1739 25.3044H30.4348C29.9557 25.3044 29.5652 24.9139 29.5652 24.4348V3.56524C29.5652 3.08611 29.9557 2.69567 30.4348 2.69567H32.1739C32.653 2.69567 33.0435 3.08611 33.0435 3.56524V8.78263ZM38.2609 19.2174C38.2609 19.6965 37.8704 20.087 37.3913 20.087H35.6522C35.173 20.087 34.7826 19.6965 34.7826 19.2174V8.78263C34.7826 8.3035 35.173 7.91306 35.6522 7.91306H37.3913C37.8704 7.91306 38.2609 8.3035 38.2609 8.78263V19.2174Z" />
  </symbol>
  <symbol id="fb" width="16" height="16" viewBox="0 0 16 16" fill="none">
    <path d="M16 8.00004C16 3.58173 12.4183 0 8.00001 0C3.58172 0 0 3.58173 0 8.00004C0 11.9931 2.92548 15.3027 6.75 15.9029V10.3125H4.71875V8.00004H6.75V6.23753C6.75 4.23252 7.94434 3.12502 9.77172 3.12502C10.647 3.12502 11.5625 3.28126 11.5625 3.28126V5.25002H10.5537C9.55992 5.25002 9.25001 5.8667 9.25001 6.49937V8.00004H11.4688L11.1141 10.3125H9.25V15.9029C13.0745 15.3027 16 11.9931 16 8.00004Z" />
    <path d="M11.1141 10.3123L11.4688 7.99978H9.24999V6.49909C9.24999 5.86644 9.55992 5.24976 10.5537 5.24976H11.5625V3.281C11.5625 3.281 10.647 3.12476 9.77171 3.12476C7.94434 3.12476 6.75 4.23225 6.75 6.23727V7.99978H4.71875V10.3123H6.75V15.9026C7.16351 15.9674 7.58144 15.9999 8 15.9998C8.42525 15.9998 8.8427 15.9665 9.24999 15.9026V10.3123H11.1141Z" />
  </symbol>
  <symbol id="flash" width="40" height="40" viewBox="0 0 40 40" fill="none">
    <g clip-path="url(#clip0_4029_199)">
      <path d="M11.2781 39.8789C11.7703 40.122 12.3682 39.9913 12.7131 39.5587L31.4631 16.043C31.7438 15.6911 31.798 15.2095 31.6027 14.804C31.4074 14.3984 30.997 14.1406 30.5469 14.1406H23.0634L29.2525 1.69367C29.4331 1.33039 29.4131 0.899531 29.1993 0.554688C28.9857 0.209844 28.6088 0 28.2031 0H14.1406C13.6024 0 13.1335 0.366563 13.0035 0.88875L8.31596 19.7169C8.22885 20.0669 8.30775 20.4375 8.52978 20.7216C8.75189 21.0059 9.09252 21.1719 9.45314 21.1719H14.985L10.6598 38.545C10.5266 39.0798 10.784 39.635 11.2781 39.8789ZM17.6216 20.2831C17.7087 19.9331 17.6298 19.5625 17.4078 19.2784C17.1856 18.9941 16.845 18.8281 16.4844 18.8281H10.9525L15.0565 2.34375H26.3116L20.1224 14.7907C19.9418 15.154 19.9619 15.5848 20.1756 15.9297C20.3892 16.2746 20.7662 16.4844 21.1718 16.4844H28.1136L14.2331 33.8928L17.6216 20.2831Z" />
    </g>
    <defs>
      <clipPath>
        <rect width="40" height="40" />
      </clipPath>
    </defs>
  </symbol>
  <symbol id="gm" width="16" height="16" viewBox="0 0 16 16" fill="none">
    <g clip-path="url(#clip0_4029_331)">
      <path d="M3.54594 9.66892L2.989 11.748L0.953406 11.7911C0.345063 10.6628 0 9.3718 0 7.99992C0 6.67333 0.322625 5.42233 0.8945 4.3208H0.894938L2.70719 4.65305L3.50106 6.45443C3.33491 6.93883 3.24434 7.45883 3.24434 7.99992C3.24441 8.58717 3.35078 9.14983 3.54594 9.66892Z" />
      <path d="M15.8601 6.50562C15.952 6.98955 15.9999 7.48933 15.9999 8.00012C15.9999 8.57287 15.9397 9.13155 15.825 9.67046C15.4355 11.5043 14.4179 13.1056 13.0083 14.2388L13.0078 14.2384L10.7252 14.1219L10.4022 12.1052C11.3375 11.5566 12.0685 10.6981 12.4536 9.67046H8.17578V6.50562H12.516H15.8601Z" />
      <path d="M13.0081 14.2382L13.0086 14.2386C11.6376 15.3406 9.89602 15.9999 8.00021 15.9999C4.95361 15.9999 2.30483 14.2971 0.953613 11.7911L3.54614 9.66895C4.22174 11.472 5.96108 12.7555 8.00021 12.7555C8.87668 12.7555 9.6978 12.5186 10.4024 12.105L13.0081 14.2382Z" />
      <path d="M13.1064 1.84175L10.5148 3.9635C9.78553 3.50769 8.92353 3.24438 8.00003 3.24438C5.91475 3.24438 4.14288 4.58678 3.50113 6.4545L0.894969 4.32088H0.894531C2.22597 1.75384 4.90816 0 8.00003 0C9.94112 0 11.7209 0.691438 13.1064 1.84175Z" />
    </g>
    <defs>
      <clipPath>
        <rect width="16" height="16" />
      </clipPath>
    </defs>
  </symbol>
  <symbol id="inst" width="16" height="16" viewBox="0 0 16 16" fill="none">
    <path d="M8.00261 0C4.66268 0 3.68588 0.00344645 3.49601 0.0192016C2.8106 0.0761911 2.3841 0.184139 1.91945 0.415543C1.56136 0.593404 1.27895 0.799575 1.00024 1.08858C0.492639 1.61564 0.185005 2.26407 0.0736409 3.03484C0.0194972 3.40903 0.0037463 3.48534 0.000546906 5.39664C-0.000683632 6.03374 0.000546906 6.87221 0.000546906 7.99686C0.000546906 11.335 0.00423852 12.3111 0.0202355 12.5006C0.0756097 13.1678 0.180205 13.5875 0.401702 14.0466C0.825007 14.9254 1.63347 15.5852 2.58591 15.8314C2.91569 15.9163 3.27993 15.9631 3.74753 15.9852C3.94565 15.9938 5.96496 16 7.98551 16C10.006 16 12.0266 15.9975 12.2198 15.9877C12.7612 15.9622 13.0756 15.92 13.4233 15.8301C13.8955 15.709 14.3356 15.4862 14.7129 15.1773C15.0902 14.8684 15.3954 14.4808 15.6075 14.0417C15.8246 13.5936 15.9348 13.1579 15.9846 12.5256C15.9954 12.3878 16 10.1898 16 7.99477C16 5.79938 15.9951 3.60547 15.9842 3.46762C15.9338 2.8251 15.8237 2.39306 15.5995 1.93641C15.4155 1.56259 15.2112 1.28343 14.9147 0.997992C14.3855 0.492349 13.7383 0.184631 12.9668 0.0733601C12.5931 0.0193247 12.5187 0.00332336 10.6064 0H8.00261Z" />
    <path d="M8.00261 0C4.66268 0 3.68588 0.00344645 3.49601 0.0192016C2.8106 0.0761911 2.3841 0.184139 1.91945 0.415543C1.56136 0.593404 1.27895 0.799575 1.00024 1.08858C0.492639 1.61564 0.185005 2.26407 0.0736409 3.03484C0.0194972 3.40903 0.0037463 3.48534 0.000546906 5.39664C-0.000683632 6.03374 0.000546906 6.87221 0.000546906 7.99686C0.000546906 11.335 0.00423852 12.3111 0.0202355 12.5006C0.0756097 13.1678 0.180205 13.5875 0.401702 14.0466C0.825007 14.9254 1.63347 15.5852 2.58591 15.8314C2.91569 15.9163 3.27993 15.9631 3.74753 15.9852C3.94565 15.9938 5.96496 16 7.98551 16C10.006 16 12.0266 15.9975 12.2198 15.9877C12.7612 15.9622 13.0756 15.92 13.4233 15.8301C13.8955 15.709 14.3356 15.4862 14.7129 15.1773C15.0902 14.8684 15.3954 14.4808 15.6075 14.0417C15.8246 13.5936 15.9348 13.1579 15.9846 12.5256C15.9954 12.3878 16 10.1898 16 7.99477C16 5.79938 15.9951 3.60547 15.9842 3.46762C15.9338 2.8251 15.8237 2.39306 15.5995 1.93641C15.4155 1.56259 15.2112 1.28343 14.9147 0.997992C14.3855 0.492349 13.7383 0.184631 12.9668 0.0733601C12.5931 0.0193247 12.5187 0.00332336 10.6064 0H8.00261Z" />
    <path d="M7.99876 2.09253C6.39462 2.09253 6.19331 2.09955 5.56327 2.12822C4.93447 2.15703 4.50525 2.2566 4.12969 2.40271C3.74121 2.55361 3.41167 2.75548 3.08337 3.084C2.75481 3.41239 2.553 3.74202 2.40165 4.13048C2.25521 4.50627 2.15554 4.93572 2.12724 5.56445C2.09918 6.19466 2.0918 6.39615 2.0918 8.00072C2.0918 9.60528 2.09893 9.80604 2.12748 10.4362C2.1564 11.0652 2.25595 11.4945 2.40189 11.8702C2.55288 12.2588 2.75469 12.5884 3.08312 12.9168C3.4113 13.2455 3.74084 13.4478 4.12908 13.5987C4.50488 13.7448 4.93422 13.8444 5.5629 13.8732C6.19294 13.9019 6.39413 13.9089 7.99814 13.9089C9.60239 13.9089 9.8031 13.9019 10.4331 13.8732C11.0619 13.8444 11.4916 13.7448 11.8674 13.5987C12.2558 13.4478 12.5849 13.2455 12.913 12.9168C13.2416 12.5884 13.4434 12.2588 13.5948 11.8703C13.74 11.4945 13.8396 11.0651 13.8692 10.4364C13.8975 9.80616 13.9049 9.60528 13.9049 8.00072C13.9049 6.39615 13.8975 6.19478 13.8692 5.56457C13.8396 4.9356 13.74 4.50627 13.5948 4.13061C13.4434 3.74202 13.2416 3.41239 12.913 3.084C12.5845 2.75535 12.2559 2.55349 11.8671 2.40271C11.4905 2.2566 11.0611 2.15703 10.4323 2.12822C9.80223 2.09955 9.60166 2.09253 7.99703 2.09253H7.99876ZM7.46888 3.15723C7.62615 3.15699 7.80162 3.15723 7.99876 3.15723C9.57581 3.15723 9.76273 3.1629 10.3855 3.19121C10.9614 3.21755 11.274 3.3138 11.4822 3.39467C11.7578 3.50176 11.9543 3.62977 12.1609 3.83655C12.3677 4.04334 12.4956 4.24028 12.6029 4.51599C12.6838 4.72401 12.7801 5.03665 12.8063 5.6127C12.8347 6.23552 12.8408 6.42262 12.8408 7.99936C12.8408 9.57611 12.8347 9.7632 12.8063 10.386C12.78 10.9621 12.6838 11.2747 12.6029 11.4827C12.4959 11.7584 12.3677 11.9548 12.1609 12.1614C11.9542 12.3682 11.7579 12.4962 11.4822 12.6033C11.2742 12.6846 10.9614 12.7806 10.3855 12.8069C9.76286 12.8352 9.57581 12.8414 7.99876 12.8414C6.42157 12.8414 6.23465 12.8352 5.612 12.8069C5.03611 12.7803 4.72355 12.6841 4.51522 12.6032C4.23958 12.4961 4.04269 12.3681 3.83596 12.1613C3.62923 11.9545 3.50126 11.7581 3.39395 11.4822C3.31311 11.2742 3.21676 10.9616 3.19055 10.3855C3.16224 9.76271 3.15658 9.57562 3.15658 7.99789C3.15658 6.42015 3.16224 6.23405 3.19055 5.61122C3.21688 5.03518 3.31311 4.72253 3.39395 4.51427C3.50101 4.23856 3.62923 4.04162 3.83596 3.83483C4.04269 3.62804 4.23958 3.50003 4.51522 3.3927C4.72343 3.31146 5.03611 3.21545 5.612 3.18899C6.15688 3.16437 6.36804 3.15699 7.46888 3.15576V3.15723ZM11.1516 4.13824C11.0114 4.13824 10.8744 4.17983 10.7578 4.25774C10.6413 4.33566 10.5504 4.4464 10.4968 4.57596C10.4431 4.70553 10.4291 4.84809 10.4565 4.98563C10.4839 5.12316 10.5514 5.24949 10.6505 5.34864C10.7497 5.44778 10.876 5.51528 11.0135 5.54261C11.151 5.56994 11.2935 5.55587 11.4231 5.50217C11.5526 5.44847 11.6632 5.35756 11.7411 5.24093C11.819 5.12431 11.8605 4.98721 11.8604 4.84698C11.8604 4.45556 11.543 4.13799 11.1516 4.13799V4.13824ZM7.99876 4.96662C6.32362 4.96662 4.96548 6.32513 4.96548 8.00072C4.96548 9.6763 6.32362 11.0342 7.99876 11.0342C9.67389 11.0342 11.0317 9.6763 11.0317 8.00072C11.0317 6.32513 9.67377 4.96662 7.99863 4.96662H7.99876ZM7.99876 6.03132C9.08606 6.03132 9.96762 6.913 9.96762 8.00072C9.96762 9.08832 9.08606 9.97011 7.99876 9.97011C6.91133 9.97011 6.02989 9.08832 6.02989 8.00072C6.02989 6.913 6.91133 6.03132 7.99876 6.03132Z" />
    <defs>
      <radialGradient cx="0" cy="0" r="1" gradientUnits="userSpaceOnUse" gradientTransform="translate(4.25002 17.2323) rotate(-90) scale(15.8572 14.7484)">
        <stop stop-color="#FFDD55" />
        <stop offset="0.1" stop-color="#FFDD55" />
        <stop offset="0.5" stop-color="#FF543E" />
        <stop offset="1" stop-color="#C837AB" />
      </radialGradient>
      <radialGradient id="paint1_radial_4029_327" cx="0" cy="0" r="1" gradientUnits="userSpaceOnUse" gradientTransform="translate(-2.68008 1.15261) rotate(78.6806) scale(7.08823 29.218)">
        <stop stop-color="#3771C8" />
        <stop offset="0.128" stop-color="#3771C8" />
        <stop offset="1" stop-color="#6600FF" stop-opacity="0" />
      </radialGradient>
    </defs>
  </symbol>
  <symbol id="location" width="24" height="24" viewBox="0 0 24 24" fill="none">
    <g clip-path="url(#clip0_4029_289)">
      <path d="M12 11C12.8284 11 13.5 10.3284 13.5 9.5C13.5 8.67157 12.8284 8 12 8C11.1716 8 10.5 8.67157 10.5 9.5C10.5 10.3284 11.1716 11 12 11Z" />
      <path d="M12 2C9.89206 1.99989 7.86926 2.83176 6.37124 4.31479C4.87323 5.79782 4.02108 7.81216 4 9.92C4 15.4 11.05 21.5 11.35 21.76C11.5311 21.9149 11.7616 22.0001 12 22.0001C12.2384 22.0001 12.4689 21.9149 12.65 21.76C13 21.5 20 15.4 20 9.92C19.9789 7.81216 19.1268 5.79782 17.6288 4.31479C16.1307 2.83176 14.1079 1.99989 12 2ZM12 13C11.3078 13 10.6311 12.7947 10.0555 12.4101C9.47993 12.0256 9.03133 11.4789 8.76642 10.8394C8.50151 10.1999 8.4322 9.49612 8.56725 8.81718C8.7023 8.13825 9.03564 7.51461 9.52513 7.02513C10.0146 6.53564 10.6382 6.2023 11.3172 6.06725C11.9961 5.9322 12.6999 6.00151 13.3394 6.26642C13.9789 6.53133 14.5256 6.97993 14.9101 7.5555C15.2947 8.13108 15.5 8.80777 15.5 9.5C15.5 10.4283 15.1313 11.3185 14.4749 11.9749C13.8185 12.6313 12.9283 13 12 13Z" />
    </g>
    <defs>
      <clipPath>
        <rect width="24" height="24" />
      </clipPath>
    </defs>
  </symbol>
  <symbol id="other" width="40" height="40" viewBox="0 0 40 40" fill="none">
    <g clip-path="url(#clip0_4029_205)">
      <path d="M5 25C2.24333 25 0 22.7567 0 20C0 17.2433 2.24333 15 5 15C7.75667 15 10 17.2433 10 20C10 22.7567 7.75667 25 5 25ZM5 16.6667C3.16167 16.6667 1.66667 18.1617 1.66667 20C1.66667 21.8383 3.16167 23.3333 5 23.3333C6.83833 23.3333 8.33333 21.8383 8.33333 20C8.33333 18.1617 6.83833 16.6667 5 16.6667Z" />
      <path d="M20 25C17.2433 25 15 22.7567 15 20C15 17.2433 17.2433 15 20 15C22.7567 15 25 17.2433 25 20C25 22.7567 22.7567 25 20 25ZM20 16.6667C18.1617 16.6667 16.6667 18.1617 16.6667 20C16.6667 21.8383 18.1617 23.3333 20 23.3333C21.8383 23.3333 23.3333 21.8383 23.3333 20C23.3333 18.1617 21.8383 16.6667 20 16.6667Z" />
      <path d="M35 25C32.2433 25 30 22.7567 30 20C30 17.2433 32.2433 15 35 15C37.7567 15 40 17.2433 40 20C40 22.7567 37.7567 25 35 25ZM35 16.6667C33.1617 16.6667 31.6667 18.1617 31.6667 20C31.6667 21.8383 33.1617 23.3333 35 23.3333C36.8383 23.3333 38.3333 21.8383 38.3333 20C38.3333 18.1617 36.8383 16.6667 35 16.6667Z" />
    </g>
    <defs>
      <clipPath>
        <rect width="40" height="40" />
      </clipPath>
    </defs>
  </symbol>
  <symbol id="parking" width="36" height="40" viewBox="0 0 36 40" fill="none">
    <path d="M19.1272 7.67151H14.4805C13.8236 7.67151 13.3086 8.20885 13.3086 8.84338V25.5317C13.3086 26.1789 13.8333 26.7035 14.4805 26.7035C15.1277 26.7035 15.6523 26.1789 15.6523 25.5317V19.4483C16.7398 19.4422 18.3313 19.4342 19.1273 19.4342C20.698 19.4342 22.1873 18.8263 23.3209 17.7225C24.4687 16.605 25.1008 15.1242 25.1008 13.5528C25.1008 11.9815 24.4687 10.5006 23.3209 9.38307C22.1873 8.2794 20.698 7.67151 19.1272 7.67151ZM19.1272 17.0904C18.3359 17.0904 16.767 17.0983 15.678 17.1044C15.6581 13.4546 15.6695 14.6819 15.6559 10.0153H19.1272C21.0948 10.0153 22.757 11.6353 22.757 13.5528C22.757 15.4704 21.0948 17.0904 19.1272 17.0904Z" />
    <path d="M30.1532 5.03406C26.907 1.78781 22.5907 0 17.9997 0C13.4087 0 9.09253 1.78781 5.84628 5.03406C-3.59082 14.4712 0.891442 30.739 13.9372 33.8911V38.0469C13.9372 39.1238 14.8134 40 15.8903 40H20.1091C21.186 40 22.0622 39.1238 22.0622 38.0469V33.8911C35.1206 30.7359 39.5837 14.4645 30.1532 5.03406ZM19.7185 37.6562H16.281V34.2899C17.4208 34.403 18.5786 34.403 19.7185 34.2899V37.6562ZM20.68 31.7902C11.6447 33.4389 3.15597 26.5484 3.15597 17.1875C3.15597 9.00266 9.8148 2.34375 17.9997 2.34375C26.1846 2.34375 32.8435 9.00266 32.8435 17.1875C32.8435 24.3529 27.7406 30.5017 20.68 31.7902Z" />
  </symbol>
  <symbol id="person" width="24" height="24" viewBox="0 0 24 24" fill="none">
    <path d="M12 11C12.7911 11 13.5645 10.7654 14.2223 10.3259C14.8801 9.88635 15.3928 9.26164 15.6955 8.53074C15.9983 7.79983 16.0775 6.99556 15.9231 6.21964C15.7688 5.44372 15.3878 4.73098 14.8284 4.17157C14.269 3.61216 13.5563 3.2312 12.7804 3.07686C12.0044 2.92252 11.2002 3.00173 10.4693 3.30448C9.73836 3.60723 9.11365 4.11992 8.67412 4.77772C8.2346 5.43552 8 6.20888 8 7C8 8.06087 8.42143 9.07828 9.17157 9.82843C9.92172 10.5786 10.9391 11 12 11Z" />
    <path d="M18 21C18.2652 21 18.5196 20.8946 18.7071 20.7071C18.8946 20.5196 19 20.2652 19 20C19 18.1435 18.2625 16.363 16.9497 15.0503C15.637 13.7375 13.8565 13 12 13C10.1435 13 8.36301 13.7375 7.05025 15.0503C5.7375 16.363 5 18.1435 5 20C5 20.2652 5.10536 20.5196 5.29289 20.7071C5.48043 20.8946 5.73478 21 6 21H18Z" />
  </symbol>
  <symbol id="pool" width="40" height="32" viewBox="0 0 40 32" fill="none">
    <path d="M1.49343 24.5808C16.6948 20.2595 22.251 28.9919 39.1247 24.5874C39.7509 24.424 40.126 23.7837 39.9626 23.1576C39.7991 22.5314 39.1589 22.1563 38.5327 22.3197C35.22 23.1844 32.3486 23.5045 29.7484 23.5079L26.3509 18.0322C28.3592 20.5276 32.0916 20.6714 34.2785 18.3459C35.24 17.3236 35.7458 15.9879 35.7028 14.5851C35.5586 9.88247 29.7968 7.7724 26.6236 11.1465C25.095 12.772 24.8177 15.0832 25.6784 16.948L21.0296 9.45552L27.9282 7.46482C30.0706 6.84661 31.0831 4.39427 29.9946 2.44372C29.2042 1.02747 27.5637 0.352317 26.0056 0.802005L15.5616 3.81583C12.8537 4.59732 11.6411 7.74513 13.128 10.1417L16.2847 15.2294C14.0091 16.6419 6.79171 21.1176 6.71507 21.1707C4.90343 21.3622 2.96327 21.7263 0.852724 22.3263C0.230224 22.5033 -0.131026 23.1514 0.0459271 23.774C0.222802 24.3966 0.871162 24.7577 1.49343 24.5808ZM28.3309 12.7523C29.434 11.5793 31.2754 11.5261 32.445 12.6261C33.6167 13.728 33.6734 15.5683 32.5713 16.7403C31.4695 17.9118 29.629 17.9686 28.4571 16.8665C27.2853 15.7645 27.2287 13.9242 28.3309 12.7523ZM18.8939 14.9897L15.1194 8.90615C14.4528 7.83169 14.9955 6.41865 16.2113 6.06779L26.6553 3.05396C27.1605 2.90802 27.6918 3.127 27.948 3.58591C28.3014 4.21927 27.9711 5.01302 27.2784 5.21294L18.8931 7.63271C18.1468 7.8481 17.8134 8.71763 18.2223 9.37646L26.9165 23.3891C21.4487 22.9301 17.006 21.2811 11.3805 21.0306L18.516 16.6032C19.0659 16.262 19.2352 15.5396 18.8939 14.9897Z" />
    <path d="M38.5319 27.7885C22.3879 32.0027 16.723 23.2833 0.851747 27.7951C0.229247 27.9721 -0.132003 28.6202 0.0449505 29.2428C0.221904 29.8654 0.870263 30.2266 1.49261 30.0496C16.6939 25.7283 22.2502 34.4608 39.1239 30.0562C39.7501 29.8928 40.1252 29.2526 39.9617 28.6264C39.7983 28.0001 39.1581 27.6251 38.5319 27.7885Z" />
  </symbol>
  <symbol id="quotes" width="27" height="23" viewBox="0 0 27 23" fill="none">
    <path d="M15.68 13.92C15.68 11.68 16.0533 9.6 16.8 7.68C17.5467 5.76 18.4267 4.29333 19.44 3.28C20.4533 2.21334 21.3867 1.41334 22.24 0.880003C23.1467 0.293334 23.84 0 24.32 0C24.5867 0 24.8267 0.133335 25.04 0.400004C25.2533 0.613335 25.36 0.800001 25.36 0.960002C25.36 1.28 25.12 1.65333 24.64 2.08C24.16 2.45334 23.6533 2.85334 23.12 3.28C22.5867 3.70667 22.08 4.42667 21.6 5.44C21.12 6.45333 20.88 7.65334 20.88 9.04C20.88 10.48 21.1733 11.7067 21.76 12.72C22.3467 13.68 22.96 14.3467 23.6 14.72C24.2933 15.0933 24.9333 15.5467 25.52 16.08C26.1067 16.56 26.4 17.12 26.4 17.76C26.4 18.08 25.68 18.96 24.24 20.4C24.1333 20.5067 23.84 20.8533 23.36 21.44C22.9333 21.9733 22.5333 22.3467 22.16 22.56C21.84 22.7733 21.4667 22.88 21.04 22.88C20.88 22.88 20.6133 22.8 20.24 22.64C19.8667 22.4267 19.4133 22.08 18.88 21.6C18.3467 21.12 17.84 20.56 17.36 19.92C16.88 19.28 16.48 18.4267 16.16 17.36C15.84 16.2933 15.68 15.1467 15.68 13.92ZM0 13.92C0 11.68 0.373333 9.6 1.12 7.68C1.86667 5.76 2.74667 4.29333 3.76 3.28C4.82667 2.21334 5.78667 1.41334 6.64 0.880003C7.54667 0.293334 8.24 0 8.72 0C8.98667 0 9.22667 0.133335 9.44 0.400004C9.65333 0.613335 9.76 0.800001 9.76 0.960002C9.76 1.28 9.52 1.65333 9.04 2.08C8.61333 2.45334 8.10667 2.85334 7.52 3.28C6.93333 3.70667 6.4 4.42667 5.92 5.44C5.49333 6.45333 5.28 7.65334 5.28 9.04C5.28 10.48 5.57333 11.7067 6.16 12.72C6.74667 13.68 7.36 14.3467 8 14.72C8.69333 15.0933 9.33333 15.5467 9.92 16.08C10.5067 16.56 10.8 17.12 10.8 17.76C10.8 18.08 10.08 18.96 8.64 20.4C8.53333 20.5067 8.24 20.8533 7.76 21.44C7.33333 21.9733 6.93333 22.3467 6.56 22.56C6.24 22.7733 5.86667 22.88 5.44 22.88C5.06667 22.88 4.48 22.6133 3.68 22.08C2.93333 21.5467 2.13333 20.56 1.28 19.12C0.426666 17.6267 0 15.8933 0 13.92Z" />
  </symbol>
  <symbol id="star" width="14" height="13" viewBox="0 0 14 13" fill="none">
    <path d="M10.7065 13C10.5999 13.0004 10.4947 12.9753 10.3998 12.9266L6.99984 11.1466L3.59984 12.9266C3.48944 12.9847 3.36496 13.0106 3.24056 13.0014C3.11616 12.9923 2.99683 12.9484 2.89613 12.8748C2.79543 12.8012 2.7174 12.7008 2.67092 12.585C2.62443 12.4693 2.61136 12.3428 2.63318 12.22L3.29984 8.46664L0.553175 5.79997C0.46748 5.71446 0.406689 5.60722 0.377327 5.48977C0.347964 5.37232 0.351138 5.24909 0.386508 5.13331C0.425148 5.01482 0.496226 4.90954 0.591675 4.82941C0.687124 4.74928 0.803124 4.69751 0.926509 4.67997L4.72651 4.12664L6.39984 0.70664C6.45443 0.593926 6.53967 0.498868 6.64578 0.432356C6.7519 0.365843 6.8746 0.330566 6.99984 0.330566C7.12508 0.330566 7.24779 0.365843 7.3539 0.432356C7.46002 0.498868 7.54525 0.593926 7.59984 0.70664L9.29317 4.11997L13.0932 4.67331C13.2166 4.69084 13.3326 4.74262 13.428 4.82275C13.5235 4.90288 13.5945 5.00816 13.6332 5.12664C13.6685 5.24242 13.6717 5.36565 13.6424 5.4831C13.613 5.60055 13.5522 5.70779 13.4665 5.79331L10.7198 8.45997L11.3865 12.2133C11.4103 12.3383 11.3978 12.4675 11.3506 12.5856C11.3033 12.7037 11.2233 12.8059 11.1198 12.88C10.9991 12.9646 10.8538 13.0068 10.7065 13Z" />
  </symbol>
  <symbol id="wifi" width="40" height="40" viewBox="0 0 40 40" fill="none">
    <g clip-path="url(#clip0_4029_183)">
      <path d="M19.9219 36.4453C21.3457 36.4453 22.5 35.291 22.5 33.8672C22.5 32.4433 21.3457 31.2891 19.9219 31.2891C18.498 31.2891 17.3438 32.4433 17.3438 33.8672C17.3438 35.291 18.498 36.4453 19.9219 36.4453Z" />
      <path d="M39.5805 12.0987C34.4454 6.58913 27.4917 3.55477 19.9997 3.55469C12.5083 3.55477 5.55465 6.58913 0.419429 12.0987C-0.168851 12.73 -0.134086 13.7187 0.497163 14.3071C1.12849 14.8954 2.11716 14.8607 2.70552 14.2294C7.24301 9.36093 13.3849 6.67976 20.0003 6.67968C26.6151 6.67976 32.7569 9.36093 37.2944 14.2294C37.6022 14.5595 38.0194 14.7265 38.4378 14.7265C38.8193 14.7265 39.2017 14.5876 39.5028 14.3071C40.134 13.7187 40.1689 12.73 39.5805 12.0987Z" />
      <path d="M33.8434 18.5514C30.0475 14.7269 25.1312 12.6207 20 12.6208C14.8676 12.6209 9.95117 14.7272 6.15649 18.5515C5.54867 19.1641 5.5525 20.1534 6.16508 20.7612C6.77766 21.369 7.76695 21.3652 8.37476 20.7526C11.5783 17.524 15.7069 15.7459 20 15.7458C24.292 15.7457 28.4206 17.5239 31.6253 20.7528C31.9307 21.0605 32.3325 21.2146 32.7343 21.2146C33.1321 21.2146 33.5303 21.0635 33.8351 20.7611C34.4475 20.1532 34.4513 19.1639 33.8434 18.5514Z" />
      <path d="M27.5899 25.0228C25.557 23.0088 22.6432 21.7578 19.9852 21.7578C19.9849 21.7578 19.9844 21.7578 19.9841 21.7578H19.8715C19.871 21.7578 19.8708 21.7578 19.8703 21.7578C17.2123 21.7578 14.2982 23.0089 12.2655 25.0228C11.6525 25.6301 11.6479 26.6194 12.2553 27.2325C12.5608 27.5408 12.963 27.6953 13.3653 27.6953C13.7627 27.6953 14.1603 27.5446 14.4649 27.2428C15.912 25.8091 18.0336 24.8828 19.8705 24.8828C19.8707 24.8828 19.871 24.8828 19.8713 24.8828H19.9843C19.9846 24.8828 19.9847 24.8828 19.985 24.8828C21.8217 24.8828 23.9434 25.8091 25.3904 27.2428C26.0034 27.8501 26.9928 27.8457 27.6001 27.2325C28.2075 26.6195 28.2029 25.6301 27.5899 25.0228Z" />
    </g>
    <defs>
      <clipPath>
        <rect width="40" height="40" />
      </clipPath>
    </defs>
  </symbol>
  <symbol id="workspace" width="40" height="40" viewBox="0 0 40 40" fill="none">
    <path d="M37.5216 4.88489H12.2324C10.8657 4.88489 9.75385 5.99669 9.75385 7.36341V9.56904L7.35705 7.17216L3.29649 11.2327L5.13962 13.0758L0 21.1489L5.21907 29.3067H3.24837C1.71875 29.3067 0.474376 30.551 0.474376 32.0806V35.115H14.3029V32.0806C14.3029 30.551 13.0585 29.3067 11.5289 29.3067H8.03877L2.81766 21.1458L6.26118 15.7368C6.1454 17.4189 6.72736 19.1405 8.01041 20.4235L8.99603 21.4092L9.75385 20.6514V25.9334C9.75385 27.3 10.8656 28.4118 12.2324 28.4118H19.3209L18.9021 32.74H16.9418V35.1152H18.6722H31.0815H32.8119V32.74H30.8517L30.4329 28.4118H37.5214C38.888 28.4118 39.9999 27.3 39.9999 25.9334V7.36349C40.0001 5.99676 38.8882 4.88489 37.5216 4.88489ZM11.5289 31.6818C11.7488 31.6818 11.9277 31.8607 11.9277 32.0806V32.7399H2.84954V32.0806C2.84954 31.8607 3.02844 31.6818 3.24837 31.6818H11.5289ZM8.28119 11.633C8.25955 11.6522 8.23775 11.6709 8.21634 11.6904C8.14775 11.7529 8.08017 11.8167 8.01423 11.8826C8.01298 11.8839 8.01173 11.885 8.01041 11.8862C8.00908 11.8875 8.00806 11.8887 8.00681 11.8901C7.94103 11.956 7.87728 12.0235 7.81486 12.092C7.79509 12.1137 7.77595 12.1358 7.75658 12.1578C7.729 12.1889 7.7008 12.2195 7.67392 12.2512L6.65556 11.2329L7.35705 10.5313L8.37541 11.5497C8.34345 11.5767 8.31252 11.6051 8.28119 11.633ZM9.09103 17.9556C8.50134 16.912 8.4647 15.6387 8.97986 14.5662C8.98345 14.5588 8.98705 14.5514 8.99064 14.544C9.00869 14.5071 9.02744 14.4704 9.04681 14.4338C9.05197 14.424 9.05736 14.4144 9.06267 14.4048C9.08135 14.3703 9.10049 14.336 9.12049 14.3022C9.12713 14.2908 9.134 14.2797 9.1408 14.2683C9.1601 14.2362 9.17978 14.204 9.20017 14.1724C9.20846 14.1596 9.21713 14.1469 9.22556 14.1342C9.24525 14.1044 9.26517 14.0746 9.28588 14.0453C9.29642 14.0305 9.30752 14.0158 9.31822 14.0011C9.33775 13.9742 9.35728 13.9474 9.3776 13.9209C9.3915 13.9029 9.40611 13.8853 9.42041 13.8675C9.43861 13.8447 9.4565 13.8219 9.47533 13.7995C9.49517 13.7758 9.51596 13.7529 9.5365 13.7297C9.5508 13.7135 9.56471 13.697 9.57932 13.6811C9.61525 13.6419 9.65205 13.6034 9.68986 13.5656C9.73197 13.5235 9.77502 13.4828 9.81877 13.4431C9.83135 13.4316 9.84432 13.4208 9.85705 13.4094C9.88892 13.3812 9.92111 13.3533 9.95377 13.3265C9.96783 13.3148 9.98228 13.3037 9.9965 13.2922C10.0292 13.2662 10.062 13.2405 10.0953 13.2158C10.1088 13.2056 10.1226 13.1958 10.1363 13.1858C10.1719 13.1601 10.2078 13.1351 10.2441 13.1108C10.2557 13.103 10.2674 13.0951 10.2792 13.0875C10.3198 13.061 10.3609 13.0354 10.4023 13.0106C10.41 13.0059 10.4178 13.0012 10.4255 12.9966C10.7314 12.8172 11.0579 12.6859 11.3941 12.6027C11.3995 12.6014 11.4049 12.5999 11.4103 12.5985C11.4631 12.5857 11.5162 12.5742 11.5695 12.5637C11.5739 12.5629 11.5783 12.5619 11.5828 12.5609C11.6372 12.5505 11.6917 12.5414 11.7465 12.5333C11.7497 12.5329 11.7529 12.5323 11.7561 12.5319C11.8114 12.524 11.8671 12.5173 11.9226 12.5119C11.9253 12.5117 11.9281 12.5114 11.9308 12.5111C11.9862 12.5058 12.0417 12.5019 12.0972 12.4992C12.1006 12.499 12.1039 12.4988 12.1074 12.4987C12.1614 12.4962 12.2156 12.4949 12.2697 12.4947C12.2747 12.4947 12.2797 12.4947 12.2848 12.4947C12.4378 12.4949 12.5906 12.5046 12.7426 12.5237C12.746 12.5241 12.7492 12.5247 12.7526 12.5251C12.8186 12.5337 12.8844 12.5445 12.9499 12.5566C12.9692 12.5602 12.9884 12.564 13.0076 12.568C13.0583 12.5782 13.1087 12.5897 13.159 12.6021C13.1813 12.6076 13.2037 12.6127 13.2258 12.6187C13.2855 12.6346 13.3449 12.6521 13.4039 12.671C13.4348 12.681 13.4653 12.692 13.496 12.7028C13.5349 12.7164 13.5735 12.7302 13.612 12.7451C13.6454 12.7582 13.6785 12.7721 13.7117 12.7861C13.7424 12.7991 13.773 12.8127 13.8035 12.8265C13.8375 12.8421 13.8715 12.8576 13.9049 12.8742C13.937 12.8901 13.9686 12.9071 14.0003 12.9239C14.0269 12.938 14.0538 12.9515 14.08 12.9663L11.5857 15.4606L9.09103 17.9556ZM21.2884 32.7399L21.7072 28.4117H28.0469L28.4656 32.7399H21.2884ZM37.6249 25.9333C37.6249 25.9902 37.5785 26.0366 37.5216 26.0366H30.2033H19.5507H12.2324C12.1753 26.0366 12.129 25.9903 12.129 25.9333V23.7216H37.625V25.9333H37.6249ZM37.6249 21.3465H12.129V18.2762L17.5334 12.8718L16.5477 11.8862C15.9479 11.2864 15.252 10.8403 14.5093 10.5461C14.5029 10.5436 14.4964 10.5414 14.4899 10.5389C14.4057 10.5058 14.3207 10.4744 14.2353 10.4452C14.2103 10.4367 14.1848 10.4291 14.1597 10.4209C14.0933 10.3992 14.0268 10.3779 13.9597 10.3586C13.917 10.3462 13.8739 10.3353 13.8309 10.3239C13.7817 10.3109 13.7324 10.2976 13.683 10.2858C13.6245 10.2719 13.5657 10.2597 13.5067 10.2473C13.4728 10.2404 13.4392 10.2329 13.4052 10.2265C13.3335 10.2129 13.2614 10.2012 13.189 10.1901C13.168 10.1869 13.1472 10.1835 13.1262 10.1805C13.0439 10.1688 12.9614 10.1591 12.8785 10.1509C12.8676 10.1498 12.8567 10.1486 12.8459 10.1476C12.7557 10.139 12.6653 10.1326 12.5746 10.1282C12.5711 10.128 12.5677 10.1278 12.5642 10.1276C12.4193 10.1208 12.2742 10.1171 12.1287 10.1207V7.36349C12.1287 7.30645 12.1751 7.26013 12.2321 7.26013H37.5213C37.5784 7.26013 37.6247 7.30653 37.6247 7.36349V21.3465H37.6249Z" />
  </symbol>
</svg>
